<?xml version="1.0" encoding="iso-8859-1"?>
<svg version="1.1" id="02n" xmlns="http://www.w3.org/2000/svg" xmlns:xlink="http://www.w3.org/1999/xlink" x="0px" y="0px"
	 viewBox="0 0 511.999 511.999" style="enable-background:new 0 0 511.999 511.999;" xml:space="preserve">
<g>
	<g>
		<path d="M395.132,258.782c0-76.717-62.414-139.13-139.13-139.13s-139.13,62.414-139.13,139.13c0,13.264,1.839,26.23,5.467,38.741
			c-36.72,14.072-63.993,47.379-69.41,87.529c-27.204,6.999-47.362,31.735-47.362,61.093c0,34.778,28.294,63.073,63.073,63.073
			h185.508c34.778,0,63.073-28.294,63.073-63.073c0-21.742-11.063-40.94-27.849-52.285C350.022,378.871,395.132,324,395.132,258.782
			z M254.145,475.824H68.638c-16.366,0-29.682-13.315-29.682-29.682c0-16.366,13.314-29.682,29.682-29.682h16.696v-16.696
			c0-41.938,34.119-76.058,76.059-76.058c41.938,0,76.058,34.119,76.058,76.058v16.696h16.696c16.366,0,29.682,13.315,29.682,29.682
			C283.827,462.509,270.512,475.824,254.145,475.824z M264.867,364.146c-14.813-42.913-55.591-73.829-103.475-73.829
			c-2.113,0-4.204,0.08-6.286,0.199c-3.212-10.204-4.843-20.832-4.843-31.734c0-58.305,47.435-105.739,105.739-105.739
			c58.305,0,105.739,47.435,105.739,105.739C361.74,314.1,319.037,359.627,264.867,364.146z"/>
	</g>
</g>
<g>
	<g>
		<rect x="239.304" y="2.782" width="33.391" height="89.043"/>
	</g>
</g>
<g>
	<g>
		<rect x="89.77" y="64.721" transform="matrix(0.7071 -0.7071 0.7071 0.7071 -46.0627 107.2788)" width="33.391" height="89.043"/>
	</g>
</g>
<g>
	<g>
		
			<rect x="388.851" y="363.806" transform="matrix(0.7071 -0.7071 0.7071 0.7071 -169.9497 406.3608)" width="33.391" height="89.043"/>
	</g>
</g>
<g>
	<g>
		<rect x="422.957" y="242.085" width="89.042" height="33.391"/>
	</g>
</g>
<g>
	<g>
		<rect y="242.085" width="89.042" height="33.391"/>
	</g>
</g>
<g>
	<g>
		
			<rect x="361.017" y="92.541" transform="matrix(0.7071 -0.7071 0.7071 0.7071 41.5377 318.7532)" width="89.041" height="33.391"/>
	</g>
</g>
<g>
</g>
<g>
</g>
<g>
</g>
<g>
</g>
<g>
</g>
<g>
</g>
<g>
</g>
<g>
</g>
<g>
</g>
<g>
</g>
<g>
</g>
<g>
</g>
<g>
</g>
<g>
</g>
<g>
</g>
</svg>
